<?xml version="1.0" encoding="UTF-8"?>
<svg version="1.1" xmlns="http://www.w3.org/2000/svg" width="512" height="512">
<path d="M0 0 C4.32430742 -0.02042422 8.6485881 -0.03604623 12.97293508 -0.04494762 C14.91988485 -0.04966528 16.86682495 -0.05795789 18.81376219 -0.06638718 C41.95663365 -0.09122548 63.31228795 5.11128366 80.78480005 21.01070786 C81.68972193 21.82281723 82.5946438 22.63492661 83.52698755 23.47164536 C93.80775529 33.18284147 101.24274637 44.55153408 105.78480005 58.01070786 C106.17667505 59.15281723 106.56855005 60.29492661 106.97230005 61.47164536 C113.29152624 82.75515021 109.78060616 103.44781381 102.78480005 124.01070786 C103.29752466 124.3166185 103.81024927 124.62252914 104.33851099 124.93770981 C115.16339844 131.44694296 124.94383401 137.94641875 133.78480005 147.01070786 C135.0706399 148.28301254 135.0706399 148.28301254 136.3824563 149.58102036 C159.62612822 173.65097427 166.4215565 204.47188215 165.87366724 236.86471176 C165.06891184 265.3539374 150.70369258 291.29100426 130.78480005 311.01070786 C116.30630784 324.36256243 94.7546658 337.53145854 74.78480005 339.01070786 C74.04552271 339.15580795 73.30624537 339.30090805 72.54456568 339.45040512 C69.63690669 339.81901792 67.61710588 339.81469322 64.78480005 339.01070786 C61.36472146 335.56855916 59.20443099 331.4321216 56.90980005 327.19820786 C56.22776746 326.00601464 55.54177316 324.81607955 54.85193872 323.62838364 C53.46619416 321.23628177 52.09741024 318.83570118 50.74036646 316.42721176 C48.00612484 311.65031074 45.07166531 307.01549121 42.09730005 302.38570786 C40.75088098 300.26696205 39.40682811 298.14674979 38.06458521 296.02535629 C37.16421402 294.60798448 36.25700565 293.19494424 35.34485865 291.78512192 C34.885469 291.0680809 34.42607935 290.35103989 33.9527688 289.61227036 C33.53664331 288.96854477 33.12051783 288.32481918 32.69178247 287.66158676 C31.78480005 286.01070786 31.78480005 286.01070786 31.78480005 284.01070786 C34.60690387 283.07000658 36.46725642 282.86278641 39.3980813 282.79977036 C58.88677693 282.24669182 76.35820092 280.20271884 91.22230005 266.38570786 C103.11778529 253.47910637 107.66670154 238.94222005 107.12855005 221.60445786 C106.39069066 208.70245926 99.64893369 195.72968816 90.21448755 186.95602036 C76.86553912 176.26827708 64.43728176 171.59977588 47.34681177 172.05587387 C45.71204127 172.0888169 44.07726518 172.12148382 42.44248438 172.15391159 C41.59063437 172.1726288 40.73878435 172.19134602 39.8611207 172.21063042 C35.3034996 172.30359275 30.74533679 172.3545192 26.1871438 172.41109848 C20.40810132 172.4832028 14.63047448 172.5685162 8.85267115 172.71017075 C4.16080999 172.82408066 -0.52947253 172.88878487 -5.22258139 172.92054176 C-7.00339485 172.94145913 -8.78409497 172.980205 -10.56411123 173.03744316 C-24.4225436 173.4691607 -24.4225436 173.4691607 -28.78554296 169.91955185 C-30.61823965 167.35593208 -31.94823064 164.8900565 -33.21519995 162.01070786 C-34.14259985 160.48558578 -34.14259985 160.48558578 -35.0887351 158.92965317 C-35.55585913 158.07468246 -36.02298315 157.21971176 -36.50426245 156.33883286 C-37.04744116 155.3547142 -37.59061987 154.37059555 -38.15025854 153.35665512 C-38.70793921 152.33499252 -39.26561987 151.31332993 -39.84019995 150.26070786 C-45.1477095 140.64093701 -50.61772217 131.14155098 -56.30357885 121.74020004 C-56.81839819 120.88200668 -57.33321753 120.02381332 -57.86363745 119.13961411 C-58.31915991 118.3875267 -58.77468237 117.6354393 -59.24400854 116.86056137 C-60.21519995 115.01070786 -60.21519995 115.01070786 -60.21519995 113.01070786 C-58.55721884 113.00523941 -58.55721884 113.00523941 -56.86574316 112.99966049 C-46.4202213 112.96262817 -35.97499199 112.90476562 -25.52969313 112.82680511 C-20.16036443 112.78739153 -14.79119824 112.75517301 -9.42174292 112.73971176 C-4.23439743 112.72450494 0.95250111 112.68998787 6.13964701 112.64239883 C8.11301384 112.62762652 10.08644449 112.61966924 12.05986643 112.61882401 C28.04934101 112.86942063 28.04934101 112.86942063 42.1871438 106.15133286 C47.78020502 99.26318622 51.03864774 92.04469917 50.78480005 83.01070786 C49.46597442 75.80621411 46.85539242 69.91532226 41.47230005 64.82320786 C33.4222521 59.39410574 26.36443163 59.59582652 16.85340357 59.67013168 C15.33514914 59.67097871 13.81689349 59.67050134 12.29863977 59.66880417 C8.19163868 59.66794572 4.08490206 59.6855469 -0.02203774 59.70652604 C-4.3194894 59.72531808 -8.61694755 59.72704527 -12.91443396 59.73060226 C-21.04576521 59.73991532 -29.17697502 59.76451906 -37.30825287 59.79465073 C-46.56819769 59.8282178 -55.8281484 59.84468655 -65.08813894 59.85973704 C-84.13056138 59.89106929 -103.17287089 59.94381536 -122.21519995 60.01070786 C-124.26647832 56.45533429 -126.3177355 52.89994849 -128.36897421 49.34455204 C-129.06478462 48.13851572 -129.76060052 46.93248257 -130.45642233 45.72645283 C-134.25745604 39.138321 -138.05801779 32.54991911 -141.85582495 25.95992661 C-142.77814917 24.35987778 -142.77814917 24.35987778 -143.7191062 22.72750473 C-144.93034996 20.62611873 -146.14126452 18.52454296 -147.3519187 16.42281723 C-147.95133276 15.38318832 -148.55074682 14.34355942 -149.16832495 13.27242661 C-149.68556128 12.37483627 -150.2027976 11.47724594 -150.73570776 10.5524559 C-151.76346219 8.78678735 -152.82260077 7.0391648 -153.90562963 5.30685043 C-155.21519995 3.01070786 -155.21519995 3.01070786 -155.21519995 1.01070786 C-135.80187798 0.87905227 -116.38854817 0.74861445 -96.97520876 0.61955643 C-87.9576271 0.55958118 -78.94004824 0.49923394 -69.92247534 0.43795395 C-62.04631716 0.38443158 -54.17015431 0.33166518 -46.29398543 0.27974081 C-42.13858914 0.25232132 -37.9831958 0.22456817 -33.8278079 0.19590378 C-22.55191642 0.11833447 -11.27602394 0.05450616 0 0 Z " fill="#61DC83" transform="translate(292.2151999473572,39.98929214477539)"/>
<path d="M0 0 C0.99 0 1.98 0 3 0 C3.32572998 0.58152832 3.65145996 1.16305664 3.98706055 1.76220703 C11.01427363 14.29180273 18.15899662 26.73931706 25.49609375 39.08984375 C29.09980533 45.15734897 32.6659631 51.24661965 36.22994995 57.3374939 C42.18501055 67.51429678 48.16766191 77.67386382 54.1875 87.8125 C60.30119011 98.11139579 66.35702492 108.44245324 72.3828125 118.79296875 C76.34598548 125.59900244 80.32813349 132.39386302 84.3125 139.1875 C84.66835175 139.79430603 85.02420349 140.40111206 85.39083862 141.02630615 C87.20262838 144.1157704 89.01459218 147.20513252 90.82666016 150.29443359 C93.67995231 155.15904974 96.53191674 160.02444396 99.38378906 164.88989258 C100.79040964 167.28963397 102.1973275 169.68920068 103.60449219 172.08862305 C106.87899238 177.67256396 110.15164607 183.25756064 113.41751099 188.84655762 C114.93400446 191.44151896 116.45158447 194.03584411 117.96923828 196.63012695 C118.68152778 197.84839968 119.39330484 199.06697221 120.10449219 200.28588867 C121.10084459 201.99347528 122.09923369 203.69987298 123.09765625 205.40625 C123.73074707 206.4890625 124.36383789 207.571875 125.01611328 208.6875 C126.41694728 211.0264756 127.83755504 213.33112226 129.30810547 215.625 C129.68438583 216.21680054 130.0606662 216.80860107 130.448349 217.41833496 C131.49939704 219.06358679 132.56269936 220.70099139 133.62670898 222.33789062 C134.07989502 223.21638672 134.53308105 224.09488281 135 225 C134.67 225.99 134.34 226.98 134 228 C125.26333006 228.47521658 116.53603676 228.80432088 107.78773403 228.95596504 C103.72249954 229.03084305 99.67088969 229.15257398 95.61157227 229.38867188 C69.53948093 230.85557264 69.53948093 230.85557264 62.11672974 224.55111694 C57.24430711 218.44190394 54.23752474 211.69057998 51.43432617 204.44544983 C49.03118093 198.6727626 45.77975762 193.41085925 42.5625 188.0625 C41.85854229 186.84760672 41.15716184 185.63120677 40.4609375 184.41186523 C35.40737092 175.66467438 30.25320779 166.97915949 25.08178711 158.30126953 C21.50256009 152.27813103 17.97061168 146.23297382 14.50390625 140.14453125 C14.13521927 139.49703918 13.76653229 138.84954712 13.38667297 138.18243408 C11.60206845 135.0444434 9.8233345 131.9032511 8.05102539 128.75830078 C7.41801514 127.64052246 6.78500488 126.52274414 6.1328125 125.37109375 C5.57480957 124.38036865 5.01680664 123.38964355 4.44189453 122.36889648 C3.08172664 119.92415045 3.08172664 119.92415045 1 118 C0.42838135 118.99290039 0.42838135 118.99290039 -0.15478516 120.00585938 C-7.07404382 132.02101663 -14.00377176 144.0294354 -21 156 C-25.86104431 164.31751206 -30.69111221 172.65222743 -35.5 181 C-40.51176312 189.69275595 -45.52509507 198.38457224 -50.5625 207.0625 C-51.12195313 208.03123047 -51.68140625 208.99996094 -52.2578125 209.99804688 C-52.79277344 210.91779297 -53.32773438 211.83753906 -53.87890625 212.78515625 C-54.3385376 213.57801025 -54.79816895 214.37086426 -55.27172852 215.18774414 C-55.84205811 216.11578857 -56.4123877 217.04383301 -57 218 C-57.32814697 218.75799393 -57.65629395 219.51598785 -57.99438477 220.29695129 C-59.41033248 223.1038315 -60.61745115 224.93147587 -63 227 C-68.07529175 228.27347577 -73.05837436 228.05014838 -78.2421875 227.87890625 C-79.73572952 227.86210439 -81.2293214 227.84930064 -82.72293091 227.84031677 C-86.6402461 227.80607227 -90.55452196 227.71778463 -94.47064209 227.61798096 C-98.47219727 227.52564441 -102.47424738 227.48475246 -106.4765625 227.43945312 C-114.31909793 227.3431432 -122.15917016 227.18969981 -130 227 C-128.83139604 224.04221486 -127.65369481 221.19922484 -126.109375 218.41796875 C-125.5512915 217.41080811 -125.5512915 217.41080811 -124.98193359 216.38330078 C-124.57539551 215.65868652 -124.16885742 214.93407227 -123.75 214.1875 C-123.31381348 213.40616699 -122.87762695 212.62483398 -122.42822266 211.81982422 C-118.24084956 204.35765465 -113.92300108 196.97276297 -109.59667969 189.59057617 C-105.01042201 181.75745932 -100.4927339 173.88692251 -96 166 C-90.46048161 156.27856294 -84.86624806 146.59104683 -79.21655273 136.93310547 C-73.06233258 126.40915375 -66.97630004 115.84619863 -60.89111328 105.28222656 C-57.76319852 99.85340058 -54.63141552 94.42680719 -51.5 89 C-50.24998121 86.83334417 -48.99998122 84.6666775 -47.75 82.5 C-44 76 -44 76 -40.25 69.5 C-39.63116943 68.42733887 -39.01233887 67.35467773 -38.37475586 66.24951172 C-37.12564482 64.08442929 -35.87645871 61.91939018 -34.62719727 59.75439453 C-30.85594046 53.21846686 -27.08746764 46.68094501 -23.32128906 40.14208984 C-21.46098172 36.91572478 -19.5958993 33.69215492 -17.73046875 30.46875 C-15.48182102 26.58035202 -13.24942131 22.68358107 -11.03797913 18.77389526 C-9.44955997 15.96994766 -7.84811706 13.17342854 -6.25 10.375 C-5.66532959 9.33069824 -5.08065918 8.28639648 -4.47827148 7.21044922 C-3.93372314 6.26186035 -3.3891748 5.31327148 -2.828125 4.3359375 C-2.3527832 3.49595215 -1.87744141 2.6559668 -1.38769531 1.79052734 C-0.92975586 1.19965332 -0.47181641 0.6087793 0 0 Z " fill="#FEFEFE" transform="translate(198,154)"/>
<path d="M0 0 C2.67578125 0.328125 2.67578125 0.328125 4.6328125 2.09375 C5.24511719 2.91359375 5.85742188 3.7334375 6.48828125 4.578125 C7.16503906 5.47789062 7.84179688 6.37765625 8.5390625 7.3046875 C12.02960428 12.24377221 15.37475082 17.25868541 18.67578125 22.328125 C19.00578125 15.068125 19.33578125 7.808125 19.67578125 0.328125 C21.32578125 0.328125 22.97578125 0.328125 24.67578125 0.328125 C26.58428073 2.23662448 25.80637758 5.64291274 25.80859375 8.171875 C25.81002884 9.19831116 25.81002884 9.19831116 25.81149292 10.2454834 C25.81217455 11.69474377 25.81032148 13.14400718 25.80615234 14.59326172 C25.80080377 16.81875428 25.80609785 19.04404501 25.8125 21.26953125 C25.81183922 22.67447961 25.81055805 24.07942785 25.80859375 25.484375 C25.80746582 26.77150391 25.80633789 28.05863281 25.80517578 29.38476562 C25.67578125 32.328125 25.67578125 32.328125 24.67578125 33.328125 C21.85498047 33.69140625 21.85498047 33.69140625 18.67578125 33.328125 C16.61767578 31.30859375 16.61767578 31.30859375 14.80859375 28.515625 C13.82246094 27.02675781 13.82246094 27.02675781 12.81640625 25.5078125 C12.15125 24.45851563 11.48609375 23.40921875 10.80078125 22.328125 C9.76824219 20.75417969 9.76824219 20.75417969 8.71484375 19.1484375 C7.01651704 16.55377169 5.3436867 13.94245009 3.67578125 11.328125 C3.34578125 18.588125 3.01578125 25.848125 2.67578125 33.328125 C1.02578125 33.328125 -0.62421875 33.328125 -2.32421875 33.328125 C-4.23271823 31.41962552 -3.45481508 28.01333726 -3.45703125 25.484375 C-3.45798798 24.80008423 -3.4589447 24.11579346 -3.45993042 23.4107666 C-3.46061205 21.96150623 -3.45875898 20.51224282 -3.45458984 19.06298828 C-3.44924127 16.83749572 -3.45453535 14.61220499 -3.4609375 12.38671875 C-3.46027672 10.98177039 -3.45899555 9.57682215 -3.45703125 8.171875 C-3.45590332 6.88474609 -3.45477539 5.59761719 -3.45361328 4.27148438 C-3.28622778 0.46393804 -3.28622778 0.46393804 0 0 Z " fill="#47E2B2" transform="translate(313.32421875,400.671875)"/>
<path d="M0 0 C17.10743416 -0.80191098 17.10743416 -0.80191098 23 4 C26.93482158 7.83645104 27.30717934 11.20345748 27.5 16.5 C27.32353466 22.03344896 26.80549882 24.98308458 23 29 C18.29924628 33.13096539 13.90074643 33.15677019 7.875 33.125 C7.13378906 33.12886719 6.39257812 33.13273437 5.62890625 33.13671875 C0.1266598 33.1266598 0.1266598 33.1266598 -1 32 C-1.1001491 29.80522309 -1.13081219 27.607216 -1.1328125 25.41015625 C-1.13376923 24.7504332 -1.13472595 24.09071014 -1.13571167 23.41099548 C-1.13639336 22.01300969 -1.13453986 20.61502076 -1.13037109 19.21704102 C-1.12503106 17.07496018 -1.13031199 14.93308983 -1.13671875 12.79101562 C-1.1360578 11.43489537 -1.13477629 10.07877524 -1.1328125 8.72265625 C-1.13168457 7.48265869 -1.13055664 6.24266113 -1.12939453 4.96508789 C-1 2 -1 2 0 0 Z M5 5 C5 12.92 5 20.84 5 29 C12.53801519 29.00053649 12.53801519 29.00053649 19 26 C22.02571989 21.70542983 22.55531409 18.18293148 22 13 C20.42275698 9.01933905 19.58999089 7.39332726 16 5 C12.37 5 8.74 5 5 5 Z " fill="#50E2AA" transform="translate(132,401)"/>
<path d="M0 0 C1.2065625 0.0309375 1.2065625 0.0309375 2.4375 0.0625 C5.8147775 7.14179323 8.82338842 14.350057 11.75 21.625 C12.11158203 22.51799805 12.47316406 23.41099609 12.84570312 24.33105469 C13.3494043 25.59224121 13.3494043 25.59224121 13.86328125 26.87890625 C14.31828003 28.01501343 14.31828003 28.01501343 14.7824707 29.17407227 C15.4375 31.0625 15.4375 31.0625 15.4375 33.0625 C13.4575 33.0625 11.4775 33.0625 9.4375 33.0625 C8.18085022 30.15649739 7.4375 28.26645416 7.4375 25.0625 C2.4875 25.0625 -2.4625 25.0625 -7.5625 25.0625 C-7.8925 26.7125 -8.2225 28.3625 -8.5625 30.0625 C-8.8925 31.0525 -9.2225 32.0425 -9.5625 33.0625 C-11.5425 33.0625 -13.5225 33.0625 -15.5625 33.0625 C-13.50856758 25.65229378 -10.88834753 18.59631235 -7.9375 11.5 C-7.53015625 10.50419922 -7.1228125 9.50839844 -6.703125 8.48242188 C-3.238501 0.07898783 -3.238501 0.07898783 0 0 Z M-0.5625 8.0625 C-1.2333712 9.6857687 -1.89907029 11.31117578 -2.5625 12.9375 C-2.93375 13.84242188 -3.305 14.74734375 -3.6875 15.6796875 C-4.67740226 17.95233858 -4.67740226 17.95233858 -4.5625 20.0625 C-1.5925 20.0625 1.3775 20.0625 4.4375 20.0625 C3.98715877 18.43526701 3.52694646 16.81076336 3.0625 15.1875 C2.80726562 14.28257812 2.55203125 13.37765625 2.2890625 12.4453125 C1.5770685 9.91680274 1.5770685 9.91680274 -0.5625 8.0625 Z " fill="#3EE2BC" transform="translate(84.5625,400.9375)"/>
<path d="M0 0 C1.2065625 0.0309375 1.2065625 0.0309375 2.4375 0.0625 C5.8147775 7.14179323 8.82338842 14.350057 11.75 21.625 C12.11158203 22.51799805 12.47316406 23.41099609 12.84570312 24.33105469 C13.3494043 25.59224121 13.3494043 25.59224121 13.86328125 26.87890625 C14.31828003 28.01501343 14.31828003 28.01501343 14.7824707 29.17407227 C15.4375 31.0625 15.4375 31.0625 15.4375 33.0625 C13.4575 33.0625 11.4775 33.0625 9.4375 33.0625 C8.18085022 30.15649739 7.4375 28.26645416 7.4375 25.0625 C2.4875 25.0625 -2.4625 25.0625 -7.5625 25.0625 C-7.8925 26.7125 -8.2225 28.3625 -8.5625 30.0625 C-8.8925 31.0525 -9.2225 32.0425 -9.5625 33.0625 C-11.5425 33.0625 -13.5225 33.0625 -15.5625 33.0625 C-13.50856758 25.65229378 -10.88834753 18.59631235 -7.9375 11.5 C-7.53015625 10.50419922 -7.1228125 9.50839844 -6.703125 8.48242188 C-3.238501 0.07898783 -3.238501 0.07898783 0 0 Z M-0.5625 8.0625 C-1.2333712 9.6857687 -1.89907029 11.31117578 -2.5625 12.9375 C-2.93375 13.84242188 -3.305 14.74734375 -3.6875 15.6796875 C-4.67740226 17.95233858 -4.67740226 17.95233858 -4.5625 20.0625 C-1.5925 20.0625 1.3775 20.0625 4.4375 20.0625 C3.98715877 18.43526701 3.52694646 16.81076336 3.0625 15.1875 C2.80726563 14.28257812 2.55203125 13.37765625 2.2890625 12.4453125 C1.5770685 9.91680274 1.5770685 9.91680274 -0.5625 8.0625 Z " fill="#35E3C9" transform="translate(263.5625,400.9375)"/>
<path d="M0 0 C4.10633739 1.62343571 4.9785284 5.22655417 6.6875 9.0625 C8.3209736 12.83440136 9.88925219 16.62991988 11.4375 20.4375 C11.84871094 21.43394531 12.25992187 22.43039062 12.68359375 23.45703125 C13.07160156 24.40707031 13.45960938 25.35710937 13.859375 26.3359375 C14.2109668 27.19622559 14.56255859 28.05651367 14.92480469 28.94287109 C15.6875 31.0625 15.6875 31.0625 15.6875 33.0625 C13.7075 33.0625 11.7275 33.0625 9.6875 33.0625 C8.2025 29.5975 8.2025 29.5975 6.6875 26.0625 C-0.2425 25.5675 -0.2425 25.5675 -7.3125 25.0625 C-7.621875 26.196875 -7.93125 27.33125 -8.25 28.5 C-9.3125 32.0625 -9.3125 32.0625 -10.3125 33.0625 C-11.97867115 33.10313832 -13.64638095 33.105221 -15.3125 33.0625 C-14.64766497 29.01902595 -13.39299658 25.4917775 -11.84375 21.703125 C-11.11091797 19.90681641 -11.11091797 19.90681641 -10.36328125 18.07421875 C-10.10885254 17.45724121 -9.85442383 16.84026367 -9.59228516 16.20458984 C-8.81003665 14.30652287 -8.03538382 12.40548581 -7.26171875 10.50390625 C-2.99107862 0.08083996 -2.99107862 0.08083996 0 0 Z M-0.3125 8.0625 C-2.7875 14.0025 -2.7875 14.0025 -5.3125 20.0625 C-2.0125 20.0625 1.2875 20.0625 4.6875 20.0625 C4.23375 18.639375 3.78 17.21625 3.3125 15.75 C3.05726563 14.94949219 2.80203125 14.14898437 2.5390625 13.32421875 C1.69918189 10.83525472 1.69918189 10.83525472 -0.3125 8.0625 Z " fill="#43E1B4" transform="translate(441.3125,400.9375)"/>
<path d="M0 0 C1.65 0 3.3 0 5 0 C14 19.40163934 14 19.40163934 14 24 C14.66 24 15.32 24 16 24 C16.14695313 23.44054687 16.29390625 22.88109375 16.4453125 22.3046875 C18.61337074 14.55450228 21.73429363 7.33462854 25 0 C26.65 0 28.3 0 30 0 C29.40405108 4.5007486 28.23171075 8.30276716 26.49609375 12.4921875 C26.00302734 13.69101562 25.50996094 14.88984375 25.00195312 16.125 C24.48060478 17.37505674 23.95911869 18.62505604 23.4375 19.875 C22.91153536 21.14820052 22.3861391 22.421636 21.86132812 23.6953125 C20.57978638 26.79923011 19.29251196 29.90063822 18 33 C15.6875 33.3125 15.6875 33.3125 13 33 C9.07291378 27.94320405 7.15959882 21.28125153 4.8125 15.375 C4.34908203 14.2303125 3.88566406 13.085625 3.40820312 11.90625 C2.97056641 10.81054688 2.53292969 9.71484375 2.08203125 8.5859375 C1.68218018 7.5861084 1.2823291 6.5862793 0.87036133 5.55615234 C0 3 0 3 0 0 Z " fill="#41E1B7" transform="translate(189,401)"/>
<path d="M0 0 C9.24 0 18.48 0 28 0 C27.67 1.65 27.34 3.3 27 5 C23.37 5 19.74 5 16 5 C16 14.24 16 23.48 16 33 C14.35 33 12.7 33 11 33 C11 23.76 11 14.52 11 5 C7.37 5 3.74 5 0 5 C0 3.35 0 1.7 0 0 Z " fill="#5DDE8B" transform="translate(370,401)"/>
<path d="M0 0 C1.32 0 2.64 0 4 0 C4.62460568 9.75078864 4.62460568 9.75078864 2.25 14.5 C-0.68385128 17.75983476 -2.83285829 19.61095276 -7 21 C-9.73865287 21.07051114 -12.45027588 21.09357765 -15.1875 21.0625 C-15.93708984 21.05798828 -16.68667969 21.05347656 -17.45898438 21.04882812 C-19.30602383 21.03706354 -21.15302213 21.01912865 -23 21 C-23 20.34 -23 19.68 -23 19 C-19.45909914 17.4448312 -16.26131423 16.64618748 -12.4375 16.125 C-9.25538078 15.55691697 -7.25507795 15.15942372 -4.5 13.4375 C-2.07381334 9.49494668 0 4.69335057 0 0 Z " fill="#2FE4D4" transform="translate(155,413)"/>
<path d="M0 0 C1.65 0 3.3 0 5 0 C5.86604534 1.76505435 6.71748642 3.53728074 7.5625 5.3125 C8.27599609 6.79169922 8.27599609 6.79169922 9.00390625 8.30078125 C10 11 10 11 9 14 C9 13.34 9 12.68 9 12 C7.02 12.99 7.02 12.99 5 14 C4.01 12.68 3.02 11.36 2 10 C1.67 10.99 1.34 11.98 1 13 C-0.65 12.67 -2.3 12.34 -4 12 C-3.45660208 7.43545749 -2.20536179 4.0271824 0 0 Z " fill="#56DE95" transform="translate(261,401)"/>
<path d="M0 0 C2.475 0.495 2.475 0.495 5 1 C5 8.26 5 15.52 5 23 C3.35 23 1.7 23 0 23 C0 15.41 0 7.82 0 0 Z " fill="#39E2C2" transform="translate(381,411)"/>
<path d="M0 0 C-0.875 4.875 -0.875 4.875 -2 6 C1.3 6.33 4.6 6.66 8 7 C8 7.33 8 7.66 8 8 C2.06 8.495 2.06 8.495 -4 9 C-4.185625 10.6396875 -4.185625 10.6396875 -4.375 12.3125 C-5 16 -5 16 -7 19 C-9.625 19.1875 -9.625 19.1875 -12 19 C-10.79732562 12.20914161 -8.43660263 0 0 0 Z " fill="#31E3CE" transform="translate(438,415)"/>
<path d="M0 0 C3.32277124 2.33300959 4.98135116 4.52638479 6.9375 8.0625 C6.9375 8.7225 6.9375 9.3825 6.9375 10.0625 C5.6175 10.0625 4.2975 10.0625 2.9375 10.0625 C3.2675 11.0525 3.5975 12.0425 3.9375 13.0625 C3 15.25 3 15.25 1.9375 17.0625 C1.83953125 16.45921875 1.7415625 15.8559375 1.640625 15.234375 C0.73175541 10.37662372 0.10522653 7.1270048 -4.0625 4.0625 C-6.19559192 2.82737921 -6.19559192 2.82737921 -8.0625 2.0625 C-4.95850207 -0.40243954 -3.8952178 -1.19241361 0 0 Z " fill="#57DF96" transform="translate(152.0625,402.9375)"/>
<path d="M0 0 C1.65 0 3.3 0 5 0 C5.86604534 1.76505435 6.71748642 3.53728074 7.5625 5.3125 C8.27599609 6.79169922 8.27599609 6.79169922 9.00390625 8.30078125 C10 11 10 11 9 14 C9 13.34 9 12.68 9 12 C7.02 12.99 7.02 12.99 5 14 C2.46690767 9.35796103 0.53484401 5.34844008 0 0 Z " fill="#58DE92" transform="translate(189,401)"/>
<path d="M0 0 C0.66 0.66 1.32 1.32 2 2 C1.67 2.99 1.34 3.98 1 5 C1.87483915 7.16715557 1.87483915 7.16715557 3 9 C0.34209561 12.21746321 -0.41165038 12.08233008 -5 13 C-3.35 8.71 -1.7 4.42 0 0 Z " fill="#47E0AC" transform="translate(79,407)"/>
<path d="M0 0 C1.98 0 3.96 0 6 0 C5.67 1.65 5.34 3.3 5 5 C3.824375 5.2165625 3.824375 5.2165625 2.625 5.4375 C0.03578982 5.87798925 0.03578982 5.87798925 -2 7 C-1.34 4.69 -0.68 2.38 0 0 Z " fill="#4FE0A2" transform="translate(434,411)"/>
<path d="M0 0 C0.33 0.66 0.66 1.32 1 2 C3.52733235 2.65555119 3.52733235 2.65555119 6 3 C6.33 2.01 6.66 1.02 7 0 C7.33 0.99 7.66 1.98 8 3 C7.67 3.66 7.34 4.32 7 5 C4.625 5.125 4.625 5.125 2 5 C1.34 4.34 0.68 3.68 0 3 C0 2.01 0 1.02 0 0 Z " fill="#27E5DF" transform="translate(200,429)"/>
<path d="M0 0 C0.99 0.33 1.98 0.66 3 1 C3 1.66 3 2.32 3 3 C4.65 3.33 6.3 3.66 8 4 C8 4.33 8 4.66 8 5 C6.02 5 4.04 5 2 5 C1.34 3.35 0.68 1.7 0 0 Z " fill="#2BE7E4" transform="translate(330,429)"/>
<path d="M0 0 C1.32 0 2.64 0 4 0 C4.33 1.32 4.66 2.64 5 4 C3.35 4 1.7 4 0 4 C0 2.68 0 1.36 0 0 Z " fill="#22E6E7" transform="translate(381,430)"/>
<path d="M0 0 C0.66 0.66 1.32 1.32 2 2 C-1.465 4.97 -1.465 4.97 -5 8 C-5.66 7.67 -6.32 7.34 -7 7 C-4.69 4.69 -2.38 2.38 0 0 Z " fill="#44E5C1" transform="translate(386,303)"/>
</svg>
