<svg xmlns="http://www.w3.org/2000/svg" xmlns:xlink="http://www.w3.org/1999/xlink" width="1080" zoomAndPan="magnify" viewBox="0 0 810 809.999993" height="1080" preserveAspectRatio="xMidYMid meet" version="1.0"><defs><clipPath id="5bb1a6ab61"><path d="M 181.386719 181.386719 L 628.386719 181.386719 L 628.386719 628.386719 L 181.386719 628.386719 Z M 181.386719 181.386719 " clip-rule="nonzero"/></clipPath></defs><g clip-path="url(#5bb1a6ab61)"><path fill="#7ed957" d="M 404.996094 181.386719 C 281.511719 181.386719 181.386719 281.511719 181.386719 404.996094 C 181.386719 528.484375 281.511719 628.609375 404.996094 628.609375 C 528.484375 628.609375 628.609375 528.484375 628.609375 404.996094 C 628.609375 281.511719 528.484375 181.386719 404.996094 181.386719 Z M 530.84375 370.484375 L 400.011719 501.320312 C 393.710938 507.617188 385.183594 511.160156 376.257812 511.160156 C 367.464844 511.160156 358.9375 507.617188 352.636719 501.320312 L 287.285156 435.96875 C 274.164062 422.84375 274.164062 401.71875 287.285156 388.59375 C 300.410156 375.601562 321.40625 375.601562 334.527344 388.59375 L 376.257812 430.457031 L 483.472656 323.242188 C 496.59375 310.121094 517.722656 310.121094 530.84375 323.242188 C 543.835938 336.234375 543.835938 357.363281 530.84375 370.484375 Z M 530.84375 370.484375 " fill-opacity="1" fill-rule="nonzero"/></g><path fill="#ffffff" d="M 530.84375 370.484375 L 400.011719 501.320312 C 393.710938 507.617188 385.183594 511.160156 376.257812 511.160156 C 367.464844 511.160156 358.9375 507.617188 352.636719 501.320312 L 287.285156 435.96875 C 274.164062 422.84375 274.164062 401.71875 287.285156 388.59375 C 300.410156 375.601562 321.40625 375.601562 334.527344 388.59375 L 376.257812 430.457031 L 483.472656 323.242188 C 496.59375 310.121094 517.722656 310.121094 530.84375 323.242188 C 543.835938 336.234375 543.835938 357.363281 530.84375 370.484375 Z M 530.84375 370.484375 " fill-opacity="1" fill-rule="nonzero"/></svg>